<svg xmlns="http://www.w3.org/2000/svg"  viewBox="0 0 64 64" width="64px" height="64px"><path d="M 38.617188 8.0898438 C 36.277261 8.200435 34.280394 9.4375644 33.056641 11.193359 C 32.799786 11.561885 32.652873 11.995827 32.458984 12.404297 C 31.422247 9.9045703 29.028088 8.3838864 26.439453 8.2402344 C 22.986021 8.0485919 19.149364 10.166846 17.367188 14.732422 C 17.229543 15.08489 17.194052 15.447665 17.140625 15.808594 C 16.690932 15.913838 16.239628 16.007367 15.787109 16.226562 C 11.909171 18.105296 9.8226939 20.968816 9.234375 23.980469 C 8.677386 26.831741 9.4806295 29.715732 10.976562 32.123047 C 9.8064037 35.880316 9.761962 39.681714 11.009766 42.779297 C 12.200263 45.734614 14.63491 47.962244 17.982422 48.744141 C 17.896762 50.972244 19.246546 53.170352 21.439453 54.537109 C 23.87025 56.052135 27.345157 56.536972 31.021484 55.033203 C 39.156744 57.590711 44.830094 53.987082 45.773438 49.640625 C 45.860028 49.241747 45.750183 48.92239 45.783203 48.541016 C 46.269729 48.440624 46.754815 48.505736 47.230469 48.277344 A 1.0001 1.0001 0 0 0 47.230469 48.275391 C 48.965509 47.441802 51.255716 45.672986 52.736328 42.994141 C 54.143434 40.448289 54.652667 37.023788 53.101562 33.175781 C 53.780991 32.38088 54.29206 31.384213 54.595703 30.171875 C 54.972056 28.669234 55.092385 26.929095 54.867188 25.183594 C 54.439805 21.870961 52.56906 18.49745 48.798828 17.277344 C 48.639908 16.380802 47.64854 11.390721 42.515625 8.9316406 C 41.533135 8.4609968 40.565907 8.1984817 39.640625 8.1132812 C 39.293644 8.0813311 38.951463 8.074045 38.617188 8.0898438 z M 38.666016 10.029297 C 38.910332 10.021351 39.162598 10.031264 39.421875 10.060547 C 40.113281 10.138637 40.85638 10.354019 41.650391 10.734375 C 46.229218 12.928003 47.009766 18.142578 47.009766 18.142578 A 1.0001 1.0001 0 0 0 47.761719 18.970703 C 51.063698 19.777707 52.499958 22.47391 52.882812 25.441406 C 53.074241 26.925155 52.965412 28.445328 52.654297 29.6875 C 52.343181 30.929672 51.795166 31.874463 51.365234 32.228516 A 1.0001 1.0001 0 0 0 51.089844 33.416016 C 52.719951 36.986883 52.215216 39.801986 50.986328 42.025391 C 49.75744 44.248796 47.696241 45.834198 46.363281 46.474609 L 46.363281 46.472656 C 46.184801 46.558356 45.986854 46.511049 45.800781 46.568359 C 45.604145 45.299774 45.193103 44.169868 44.492188 43.376953 C 43.879343 42.68367 43.086397 42.195032 42.1875 42.119141 C 41.288603 42.043251 40.350833 42.450761 39.689453 43.21875 C 39.008095 44.010097 38.858912 45.108504 39.197266 45.964844 C 39.535619 46.821184 40.218091 47.474817 41.044922 47.964844 C 41.83616 48.433776 42.803943 48.735791 43.822266 48.837891 C 43.800706 48.976705 43.851372 49.073934 43.820312 49.216797 C 43.177134 52.180247 38.891708 55.5762 31.316406 53.050781 A 1.0001 1.0001 0 0 0 30.591797 53.087891 C 27.330021 54.546318 24.460099 54.062718 22.498047 52.839844 C 20.535995 51.61697 19.607831 49.693677 19.970703 48.242188 A 1.0001 1.0001 0 0 0 19.140625 47.009766 C 15.974443 46.557454 13.942905 44.708436 12.865234 42.033203 C 11.787563 39.35797 11.76244 35.835459 12.947266 32.320312 A 1.0001 1.0001 0 0 0 12.830078 31.441406 C 11.415487 29.338561 10.729585 26.757379 11.197266 24.363281 C 11.664947 21.969184 13.231095 19.688611 16.660156 18.027344 C 16.845658 17.937484 17.004696 18.005199 17.1875 17.943359 C 17.426836 18.988313 17.912739 19.975757 18.503906 20.792969 C 19.096717 21.612454 19.808435 22.28748 20.673828 22.644531 C 21.539221 23.001582 22.69569 22.906516 23.460938 22.166016 A 1.0001 1.0001 0 0 0 23.472656 22.154297 C 24.226979 21.399974 24.413611 20.293302 24.160156 19.369141 C 23.906701 18.44498 23.304294 17.629184 22.498047 16.974609 C 21.634334 16.27338 20.486044 15.790032 19.226562 15.650391 C 19.243482 15.594301 19.209639 15.512353 19.230469 15.458984 C 20.741292 11.58856 23.753807 10.095424 26.328125 10.238281 C 28.902496 10.381185 31 12.018591 31 15.222656 L 31 42 C 31 44.272217 30.262047 45.56726 29.330078 46.279297 C 28.398109 46.991334 27.175451 47.153181 26.029297 46.820312 C 24.883142 46.487445 23.863345 45.672864 23.361328 44.464844 C 22.859312 43.256824 22.827168 41.601009 23.896484 39.443359 A 1.0001 1.0001 0 0 0 23.128906 38.007812 C 18.535787 37.407519 17.185411 30.48425 21.519531 27.855469 A 1.0008695 1.0008695 0 1 0 20.480469 26.144531 C 15.007616 29.463989 16.270248 37.91271 21.787109 39.650391 C 21.012127 41.752094 20.878724 43.704525 21.513672 45.232422 C 22.261624 47.032246 23.783483 48.252181 25.470703 48.742188 C 27.157924 49.232194 29.060172 49.00351 30.544922 47.869141 C 32.029672 46.734771 33 44.727783 33 42 L 33 20.222656 C 33.09045 20.35143 33.11863 20.49985 33.21875 20.625 C 35.386351 23.334501 37.956905 24.232134 39.929688 24.373047 C 40.505096 24.414147 40.899391 24.323307 41.365234 24.273438 C 41.24022 24.630848 41.0866 24.89837 41.013672 25.335938 C 40.722202 27.084757 41.086732 29.500792 43.292969 31.707031 A 1.0001 1.0001 0 1 0 44.707031 30.292969 C 42.913271 28.499208 42.777798 26.915243 42.986328 25.664062 C 43.194858 24.412883 43.800781 23.599609 43.800781 23.599609 A 1.0001 1.0001 0 0 0 42.628906 22.072266 C 42.628906 22.072266 41.59753 22.48604 40.070312 22.376953 C 38.543095 22.267866 36.613649 21.665499 34.78125 19.375 C 33.081759 17.250636 33.297028 14.34494 34.697266 12.335938 C 35.616169 11.01753 36.955803 10.084919 38.666016 10.029297 z M 19.230469 17.628906 C 20.009296 17.755565 20.700889 18.092633 21.236328 18.527344 C 21.774956 18.964644 22.12058 19.497754 22.230469 19.898438 C 22.339084 20.294476 22.298599 20.488757 22.060547 20.730469 C 21.844866 20.937364 21.786029 20.939529 21.435547 20.794922 C 21.079534 20.648038 20.560314 20.222859 20.125 19.621094 C 19.712321 19.050619 19.40871 18.336627 19.230469 17.628906 z M 42.019531 44.111328 C 42.279916 44.133308 42.640359 44.302908 42.994141 44.703125 C 43.386893 45.147429 43.681742 45.893502 43.837891 46.787109 C 43.184204 46.696669 42.546098 46.529591 42.064453 46.244141 C 41.515909 45.919042 41.166756 45.50916 41.056641 45.230469 C 40.946525 44.951778 40.932436 44.842044 41.205078 44.525391 C 41.533198 44.14438 41.759147 44.089345 42.019531 44.111328 z"/></svg>